<svg width="20" height="20" viewBox="0 0 20 20" fill="none" xmlns="http://www.w3.org/2000/svg">
<path d="M10 0C4.477 0 0 4.477 0 10C0 15.523 4.477 20 10 20C15.523 20 20 15.523 20 10C20 4.477 15.523 0 10 0ZM10 18.5C5.31 18.5 1.5 14.69 1.5 10C1.5 5.31 5.31 1.5 10 1.5C14.69 1.5 18.5 5.31 18.5 10C18.5 14.69 14.69 18.5 10 18.5Z" fill="currentColor"/>
<path d="M13.1 2.6C12.8 2.8 12.5 3.2 12.2 3.7C11.5 4.9 11 6.4 11 8H9C9 6.4 8.5 4.9 7.8 3.7C7.5 3.2 7.2 2.8 6.9 2.6C7.9 2.2 8.9 2 10 2C11.1 2 12.1 2.2 13.1 2.6Z" fill="currentColor"/>
<path d="M6.9 17.4C7.2 17.2 7.5 16.8 7.8 16.3C8.5 15.1 9 13.6 9 12H11C11 13.6 11.5 15.1 12.2 16.3C12.5 16.8 12.8 17.2 13.1 17.4C12.1 17.8 11.1 18 10 18C8.9 18 7.9 17.8 6.9 17.4Z" fill="currentColor"/>
<path d="M2.6 6.9C2.8 7.2 3.2 7.5 3.7 7.8C4.9 8.5 6.4 9 8 9V11C6.4 11 4.9 11.5 3.7 12.2C3.2 12.5 2.8 12.8 2.6 13.1C2.2 12.1 2 11.1 2 10C2 8.9 2.2 7.9 2.6 6.9Z" fill="currentColor"/>
<path d="M17.4 13.1C17.2 12.8 16.8 12.5 16.3 12.2C15.1 11.5 13.6 11 12 11V9C13.6 9 15.1 8.5 16.3 7.8C16.8 7.5 17.2 7.2 17.4 6.9C17.8 7.9 18 8.9 18 10C18 11.1 17.8 12.1 17.4 13.1Z" fill="currentColor"/>
</svg>